<mxfile host="app.diagrams.net" modified="2021-07-15T03:24:38.477Z" agent="5.0 (Macintosh; Intel Mac OS X 10_14_6) AppleWebKit/537.36 (KHTML, like Gecko) Chrome/91.0.4472.114 Safari/537.36" etag="u6vXvMZ2AsRiE_VqDvUf" version="14.8.1" type="github">
  <diagram id="fgFn3dPt73MYGTA3JO_e" name="Page-1">
    <mxGraphModel dx="1426" dy="794" grid="1" gridSize="10" guides="1" tooltips="1" connect="1" arrows="1" fold="1" page="1" pageScale="1" pageWidth="827" pageHeight="1169" math="0" shadow="0">
      <root>
        <mxCell id="0" />
        <mxCell id="1" parent="0" />
        <mxCell id="pajPc3zmstrj46u7FXM_-1" value="&lt;font style=&quot;font-size: 14px&quot;&gt;什么是数据中台？&lt;/font&gt;" style="text;html=1;strokeColor=none;fillColor=none;align=center;verticalAlign=middle;whiteSpace=wrap;rounded=0;" vertex="1" parent="1">
          <mxGeometry x="60" y="40" width="120" height="60" as="geometry" />
        </mxCell>
        <mxCell id="pajPc3zmstrj46u7FXM_-2" value="&lt;font style=&quot;font-size: 14px&quot;&gt;如何建设数据中台？&lt;/font&gt;" style="text;html=1;strokeColor=none;fillColor=none;align=center;verticalAlign=middle;whiteSpace=wrap;rounded=0;" vertex="1" parent="1">
          <mxGeometry x="280" y="40" width="150" height="60" as="geometry" />
        </mxCell>
        <mxCell id="pajPc3zmstrj46u7FXM_-3" value="&lt;font style=&quot;font-size: 14px&quot;&gt;有哪些应用价值？&lt;/font&gt;" style="text;html=1;strokeColor=none;fillColor=none;align=center;verticalAlign=middle;whiteSpace=wrap;rounded=0;" vertex="1" parent="1">
          <mxGeometry x="480" y="40" width="140" height="60" as="geometry" />
        </mxCell>
        <mxCell id="pajPc3zmstrj46u7FXM_-4" value="" style="endArrow=classic;html=1;" edge="1" parent="1">
          <mxGeometry width="50" height="50" relative="1" as="geometry">
            <mxPoint x="80" y="280" as="sourcePoint" />
            <mxPoint x="690" y="280" as="targetPoint" />
          </mxGeometry>
        </mxCell>
        <mxCell id="pajPc3zmstrj46u7FXM_-5" value="实现篇" style="text;html=1;align=center;verticalAlign=middle;resizable=0;points=[];autosize=1;strokeColor=none;" vertex="1" parent="1">
          <mxGeometry x="5" y="270" width="50" height="20" as="geometry" />
        </mxCell>
        <mxCell id="pajPc3zmstrj46u7FXM_-6" value="1、元数据" style="text;html=1;align=center;verticalAlign=middle;resizable=0;points=[];autosize=1;strokeColor=none;" vertex="1" parent="1">
          <mxGeometry x="110" y="230" width="70" height="20" as="geometry" />
        </mxCell>
        <mxCell id="pajPc3zmstrj46u7FXM_-7" value="3、模型设计" style="text;html=1;align=center;verticalAlign=middle;resizable=0;points=[];autosize=1;strokeColor=none;" vertex="1" parent="1">
          <mxGeometry x="240" y="230" width="80" height="20" as="geometry" />
        </mxCell>
        <mxCell id="pajPc3zmstrj46u7FXM_-8" value="2、指标管理" style="text;html=1;align=center;verticalAlign=middle;resizable=0;points=[];autosize=1;strokeColor=none;" vertex="1" parent="1">
          <mxGeometry x="110" y="310" width="80" height="20" as="geometry" />
        </mxCell>
        <mxCell id="pajPc3zmstrj46u7FXM_-9" value="4、数据质量" style="text;html=1;align=center;verticalAlign=middle;resizable=0;points=[];autosize=1;strokeColor=none;" vertex="1" parent="1">
          <mxGeometry x="240" y="310" width="80" height="20" as="geometry" />
        </mxCell>
        <mxCell id="pajPc3zmstrj46u7FXM_-10" value="5、成本控制" style="text;html=1;align=center;verticalAlign=middle;resizable=0;points=[];autosize=1;strokeColor=none;" vertex="1" parent="1">
          <mxGeometry x="390" y="230" width="80" height="20" as="geometry" />
        </mxCell>
        <mxCell id="pajPc3zmstrj46u7FXM_-11" value="6、数据服务" style="text;html=1;align=center;verticalAlign=middle;resizable=0;points=[];autosize=1;strokeColor=none;" vertex="1" parent="1">
          <mxGeometry x="390" y="310" width="80" height="20" as="geometry" />
        </mxCell>
        <mxCell id="pajPc3zmstrj46u7FXM_-12" value="7、数据安全" style="text;html=1;align=center;verticalAlign=middle;resizable=0;points=[];autosize=1;strokeColor=none;" vertex="1" parent="1">
          <mxGeometry x="560" y="230" width="80" height="20" as="geometry" />
        </mxCell>
        <mxCell id="pajPc3zmstrj46u7FXM_-13" value="8、流程协作" style="text;html=1;align=center;verticalAlign=middle;resizable=0;points=[];autosize=1;strokeColor=none;" vertex="1" parent="1">
          <mxGeometry x="560" y="310" width="80" height="20" as="geometry" />
        </mxCell>
        <mxCell id="pajPc3zmstrj46u7FXM_-14" value="9、数据应用" style="text;html=1;align=center;verticalAlign=middle;resizable=0;points=[];autosize=1;strokeColor=none;" vertex="1" parent="1">
          <mxGeometry x="710" y="270" width="80" height="20" as="geometry" />
        </mxCell>
      </root>
    </mxGraphModel>
  </diagram>
</mxfile>
